<svg width="24" height="24" viewBox="0 0 24 24" fill="none" xmlns="http://www.w3.org/2000/svg">
<path d="M1.61475 9.19482C1.61475 5.56494 4.10645 3.00146 7.42871 3.00146C9.32568 3.00146 10.8843 3.91406 11.7969 5.28809C12.73 3.90381 14.2681 3.00146 16.165 3.00146C19.4873 3.00146 21.979 5.56494 21.979 9.19482C21.979 13.563 18.3184 17.8594 12.5454 21.5508C12.3198 21.6841 12.0122 21.8276 11.7969 21.8276C11.5815 21.8276 11.2739 21.6841 11.0586 21.5508C5.27539 17.8594 1.61475 13.563 1.61475 9.19482ZM3.26562 9.19482C3.26562 13.0093 7.29541 17.1211 11.5918 19.9717C11.6841 20.0435 11.7559 20.0947 11.7969 20.0947C11.8379 20.0947 11.9097 20.0435 12.0122 19.9717C16.2983 17.1211 20.3281 13.0093 20.3281 9.19482C20.3281 6.46729 18.5645 4.65234 16.1855 4.65234C14.2681 4.65234 13.2017 5.87256 12.4941 6.87744C12.1968 7.27734 12.043 7.40039 11.7969 7.40039C11.5508 7.40039 11.3765 7.2876 11.0996 6.87744C10.4434 5.85205 9.33594 4.65234 7.4082 4.65234C5.0293 4.65234 3.26562 6.46729 3.26562 9.19482Z" fill="#23282E"/>
</svg>
