<svg width="24" height="25" viewBox="0 0 24 25" fill="none" xmlns="http://www.w3.org/2000/svg">
<path d="M4.36719 11.3906C4.36719 7.95312 7.16406 5.15625 10.6016 5.15625C14.0391 5.15625 16.8359 7.95312 16.8359 11.3906C16.8359 12.8125 16.3594 14.1172 15.5547 15.1641L19.375 19.0078C19.5391 19.1719 19.6328 19.3984 19.6328 19.6484C19.6328 20.1719 19.2656 20.5703 18.7344 20.5703C18.4844 20.5703 18.25 20.4844 18.0703 20.3047L14.2266 16.4531C13.2031 17.1875 11.9609 17.625 10.6016 17.625C7.16406 17.625 4.36719 14.8281 4.36719 11.3906ZM5.70312 11.3906C5.70312 14.0938 7.89844 16.2891 10.6016 16.2891C13.3047 16.2891 15.5 14.0938 15.5 11.3906C15.5 8.6875 13.3047 6.49219 10.6016 6.49219C7.89844 6.49219 5.70312 8.6875 5.70312 11.3906Z" fill="#616569"/>
</svg>
