<svg width="24" height="24" viewBox="0 0 24 24" fill="none" xmlns="http://www.w3.org/2000/svg">
<path d="M12.8889 18.6413H18.2222V10.5073L12 5.59915L5.77778 10.5073V18.6413H11.1111V13.2319H12.8889V18.6413ZM20 19.5429C20 19.782 19.9064 20.0113 19.7397 20.1804C19.573 20.3495 19.3469 20.4444 19.1111 20.4444H4.88889C4.65314 20.4444 4.42705 20.3495 4.26035 20.1804C4.09365 20.0113 4 19.782 4 19.5429V10.0673C3.99991 9.92995 4.03077 9.79436 4.09024 9.67092C4.1497 9.54748 4.2362 9.43946 4.34311 9.3551L11.4542 3.74551C11.6103 3.6224 11.8023 3.55556 12 3.55556C12.1977 3.55556 12.3897 3.6224 12.5458 3.74551L19.6569 9.3551C19.7638 9.43946 19.8503 9.54748 19.9098 9.67092C19.9692 9.79436 20.0001 9.92995 20 10.0673V19.5429Z" fill="#23282E"/>
</svg>
