<svg width="24" height="25" viewBox="0 0 24 25" fill="none" xmlns="http://www.w3.org/2000/svg">
<path d="M12 22.2441C6.63867 22.2441 2.20508 17.8105 2.20508 12.4492C2.20508 7.07812 6.62891 2.6543 11.9902 2.6543C17.3613 2.6543 21.7949 7.07812 21.7949 12.4492C21.7949 17.8105 17.3613 22.2441 12 22.2441ZM9.08008 16.9805C9.33398 16.9805 9.4707 16.8926 9.66602 16.6191L11.9512 13.2988H11.9902L14.2559 16.6191C14.4512 16.8926 14.5879 16.9805 14.8418 16.9805C15.1934 16.9805 15.4473 16.7461 15.4473 16.4141C15.4473 16.2578 15.4082 16.1406 15.3008 16.0039L12.752 12.3906L15.3301 8.75781C15.4375 8.61133 15.4766 8.48438 15.4766 8.34766C15.4766 8.03516 15.2227 7.80078 14.8906 7.80078C14.6367 7.80078 14.4902 7.89844 14.3242 8.15234L12.0879 11.4727H12.0391L9.7832 8.14258C9.60742 7.89844 9.46094 7.80078 9.1875 7.80078C8.86523 7.80078 8.5918 8.05469 8.5918 8.37695C8.5918 8.55273 8.63086 8.66016 8.75781 8.82617L11.2383 12.3613L8.64062 16.0332C8.54297 16.1797 8.50391 16.2871 8.50391 16.4434C8.50391 16.7461 8.75781 16.9805 9.08008 16.9805Z" fill="#D5D6D7"/>
</svg>
